<svg xmlns="http://www.w3.org/2000/svg" viewBox="0 0 300 160">
  <g fill="#049fd9">
    <rect x="30" y="10" width="8" height="80" rx="2"/>
    <rect x="30" y="100" width="8" height="40" rx="2"/>
    <rect x="52" y="10" width="8" height="60" rx="2"/>
    <rect x="52" y="80" width="8" height="60" rx="2"/>
    <rect x="74" y="10" width="8" height="40" rx="2"/>
    <rect x="74" y="60" width="8" height="80" rx="2"/>
    <rect x="96" y="20" width="8" height="60" rx="2"/>
    <rect x="96" y="90" width="8" height="50" rx="2"/>
    <rect x="118" y="10" width="8" height="50" rx="2"/>
    <rect x="118" y="70" width="8" height="70" rx="2"/>
    <rect x="140" y="10" width="8" height="70" rx="2"/>
    <rect x="140" y="90" width="8" height="50" rx="2"/>
    <rect x="162" y="10" width="8" height="40" rx="2"/>
    <rect x="162" y="60" width="8" height="80" rx="2"/>
  </g>
  <text x="190" y="90" font-family="Arial, sans-serif" font-size="60" font-weight="bold" fill="#049fd9">CISCO</text>
</svg>
